<?xml version="1.0" encoding="utf-8" standalone="no"?>
<!DOCTYPE svg PUBLIC "-//W3C//DTD SVG 1.1//EN"
  "http://www.w3.org/Graphics/SVG/1.1/DTD/svg11.dtd">
<svg xmlns:xlink="http://www.w3.org/1999/xlink" width="386.496562pt" height="337.230781pt" viewBox="0 0 386.496562 337.230781" xmlns="http://www.w3.org/2000/svg" version="1.1">
 <metadata>
  <rdf:RDF xmlns:dc="http://purl.org/dc/elements/1.1/" xmlns:cc="http://creativecommons.org/ns#" xmlns:rdf="http://www.w3.org/1999/02/22-rdf-syntax-ns#">
   <cc:Work>
    <dc:type rdf:resource="http://purl.org/dc/dcmitype/StillImage"/>
    <dc:date>2026-08-06T16:39:55.825573</dc:date>
    <dc:format>image/svg+xml</dc:format>
    <dc:creator>
     <cc:Agent>
      <dc:title>Matplotlib v3.10.7, https://matplotlib.org/</dc:title>
     </cc:Agent>
    </dc:creator>
   </cc:Work>
  </rdf:RDF>
 </metadata>
 <defs>
  <style type="text/css">*{stroke-linejoin: round; stroke-linecap: butt}</style>
 </defs>
 <g id="figure_1">
  <g id="patch_1">
   <path d="M 0 337.230781 
L 386.496562 337.230781 
L 386.496562 0 
L 0 0 
z
" style="fill: #ffffff"/>
  </g>
  <g id="axes_1">
   <g id="patch_2">
    <path d="M 43.15875 299.518125 
L 377.95875 299.518125 
L 377.95875 22.318125 
L 43.15875 22.318125 
z
" style="fill: #ffffff"/>
   </g>
   <g id="matplotlib.axis_1">
    <g id="xtick_1">
     <g id="line2d_1">
      <path d="M 58.376932 299.518125 
L 58.376932 22.318125 
" clip-path="url(#p307b602bb1)" style="fill: none; stroke-dasharray: 0.8,1.32; stroke-dashoffset: 0; stroke: #b0b0b0; stroke-opacity: 0.6; stroke-width: 0.8"/>
     </g>
     <g id="line2d_2">
      <defs>
       <path id="ma730710c55" d="M 0 0 
L 0 3.5 
" style="stroke: #000000; stroke-width: 0.8"/>
      </defs>
      <g>
       <use xlink:href="#ma730710c55" x="58.376932" y="299.518125" style="stroke: #000000; stroke-width: 0.8"/>
      </g>
     </g>
     <g id="text_1">
      <!-- 0.0 -->
      <g transform="translate(51.220526 313.356719) scale(0.09 -0.09)">
       <defs>
        <path id="DejaVuSerif-30" d="M 2034 219 
Q 2513 219 2750 744 
Q 2988 1269 2988 2328 
Q 2988 3391 2750 3916 
Q 2513 4441 2034 4441 
Q 1556 4441 1318 3916 
Q 1081 3391 1081 2328 
Q 1081 1269 1318 744 
Q 1556 219 2034 219 
z
M 2034 -91 
Q 1275 -91 848 546 
Q 422 1184 422 2328 
Q 422 3475 848 4112 
Q 1275 4750 2034 4750 
Q 2797 4750 3222 4112 
Q 3647 3475 3647 2328 
Q 3647 1184 3222 546 
Q 2797 -91 2034 -91 
z
" transform="scale(0.015625)"/>
        <path id="DejaVuSerif-2e" d="M 603 325 
Q 603 500 722 622 
Q 841 744 1019 744 
Q 1191 744 1312 622 
Q 1434 500 1434 325 
Q 1434 153 1312 31 
Q 1191 -91 1019 -91 
Q 841 -91 722 29 
Q 603 150 603 325 
z
" transform="scale(0.015625)"/>
       </defs>
       <use xlink:href="#DejaVuSerif-30"/>
       <use xlink:href="#DejaVuSerif-2e" transform="translate(63.623047 0)"/>
       <use xlink:href="#DejaVuSerif-30" transform="translate(95.410156 0)"/>
      </g>
     </g>
    </g>
    <g id="xtick_2">
     <g id="line2d_3">
      <path d="M 119.249659 299.518125 
L 119.249659 22.318125 
" clip-path="url(#p307b602bb1)" style="fill: none; stroke-dasharray: 0.8,1.32; stroke-dashoffset: 0; stroke: #b0b0b0; stroke-opacity: 0.6; stroke-width: 0.8"/>
     </g>
     <g id="line2d_4">
      <g>
       <use xlink:href="#ma730710c55" x="119.249659" y="299.518125" style="stroke: #000000; stroke-width: 0.8"/>
      </g>
     </g>
     <g id="text_2">
      <!-- 0.2 -->
      <g transform="translate(112.093253 313.356719) scale(0.09 -0.09)">
       <defs>
        <path id="DejaVuSerif-32" d="M 819 3553 
L 469 3553 
L 469 4384 
Q 803 4563 1142 4656 
Q 1481 4750 1806 4750 
Q 2534 4750 2956 4397 
Q 3378 4044 3378 3438 
Q 3378 2753 2422 1800 
Q 2347 1728 2309 1691 
L 1131 513 
L 3078 513 
L 3078 1088 
L 3444 1088 
L 3444 0 
L 434 0 
L 434 341 
L 1850 1753 
Q 2319 2222 2519 2614 
Q 2719 3006 2719 3438 
Q 2719 3909 2473 4175 
Q 2228 4441 1797 4441 
Q 1350 4441 1106 4219 
Q 863 3997 819 3553 
z
" transform="scale(0.015625)"/>
       </defs>
       <use xlink:href="#DejaVuSerif-30"/>
       <use xlink:href="#DejaVuSerif-2e" transform="translate(63.623047 0)"/>
       <use xlink:href="#DejaVuSerif-32" transform="translate(95.410156 0)"/>
      </g>
     </g>
    </g>
    <g id="xtick_3">
     <g id="line2d_5">
      <path d="M 180.122386 299.518125 
L 180.122386 22.318125 
" clip-path="url(#p307b602bb1)" style="fill: none; stroke-dasharray: 0.8,1.32; stroke-dashoffset: 0; stroke: #b0b0b0; stroke-opacity: 0.6; stroke-width: 0.8"/>
     </g>
     <g id="line2d_6">
      <g>
       <use xlink:href="#ma730710c55" x="180.122386" y="299.518125" style="stroke: #000000; stroke-width: 0.8"/>
      </g>
     </g>
     <g id="text_3">
      <!-- 0.4 -->
      <g transform="translate(172.96598 313.356719) scale(0.09 -0.09)">
       <defs>
        <path id="DejaVuSerif-34" d="M 2234 1581 
L 2234 4063 
L 641 1581 
L 2234 1581 
z
M 3609 0 
L 1484 0 
L 1484 331 
L 2234 331 
L 2234 1247 
L 197 1247 
L 197 1588 
L 2241 4750 
L 2859 4750 
L 2859 1581 
L 3750 1581 
L 3750 1247 
L 2859 1247 
L 2859 331 
L 3609 331 
L 3609 0 
z
" transform="scale(0.015625)"/>
       </defs>
       <use xlink:href="#DejaVuSerif-30"/>
       <use xlink:href="#DejaVuSerif-2e" transform="translate(63.623047 0)"/>
       <use xlink:href="#DejaVuSerif-34" transform="translate(95.410156 0)"/>
      </g>
     </g>
    </g>
    <g id="xtick_4">
     <g id="line2d_7">
      <path d="M 240.995114 299.518125 
L 240.995114 22.318125 
" clip-path="url(#p307b602bb1)" style="fill: none; stroke-dasharray: 0.8,1.32; stroke-dashoffset: 0; stroke: #b0b0b0; stroke-opacity: 0.6; stroke-width: 0.8"/>
     </g>
     <g id="line2d_8">
      <g>
       <use xlink:href="#ma730710c55" x="240.995114" y="299.518125" style="stroke: #000000; stroke-width: 0.8"/>
      </g>
     </g>
     <g id="text_4">
      <!-- 0.6 -->
      <g transform="translate(233.838707 313.356719) scale(0.09 -0.09)">
       <defs>
        <path id="DejaVuSerif-36" d="M 2094 219 
Q 2534 219 2771 542 
Q 3009 866 3009 1472 
Q 3009 2078 2771 2401 
Q 2534 2725 2094 2725 
Q 1647 2725 1412 2412 
Q 1178 2100 1178 1509 
Q 1178 888 1415 553 
Q 1653 219 2094 219 
z
M 1075 2569 
Q 1288 2803 1556 2918 
Q 1825 3034 2163 3034 
Q 2859 3034 3264 2615 
Q 3669 2197 3669 1472 
Q 3669 763 3233 336 
Q 2797 -91 2069 -91 
Q 1278 -91 853 498 
Q 428 1088 428 2181 
Q 428 3406 931 4078 
Q 1434 4750 2350 4750 
Q 2597 4750 2869 4703 
Q 3141 4656 3425 4563 
L 3425 3794 
L 3072 3794 
Q 3034 4109 2831 4275 
Q 2628 4441 2284 4441 
Q 1678 4441 1381 3981 
Q 1084 3522 1075 2569 
z
" transform="scale(0.015625)"/>
       </defs>
       <use xlink:href="#DejaVuSerif-30"/>
       <use xlink:href="#DejaVuSerif-2e" transform="translate(63.623047 0)"/>
       <use xlink:href="#DejaVuSerif-36" transform="translate(95.410156 0)"/>
      </g>
     </g>
    </g>
    <g id="xtick_5">
     <g id="line2d_9">
      <path d="M 301.867841 299.518125 
L 301.867841 22.318125 
" clip-path="url(#p307b602bb1)" style="fill: none; stroke-dasharray: 0.8,1.32; stroke-dashoffset: 0; stroke: #b0b0b0; stroke-opacity: 0.6; stroke-width: 0.8"/>
     </g>
     <g id="line2d_10">
      <g>
       <use xlink:href="#ma730710c55" x="301.867841" y="299.518125" style="stroke: #000000; stroke-width: 0.8"/>
      </g>
     </g>
     <g id="text_5">
      <!-- 0.8 -->
      <g transform="translate(294.711435 313.356719) scale(0.09 -0.09)">
       <defs>
        <path id="DejaVuSerif-38" d="M 2981 1275 
Q 2981 1775 2732 2051 
Q 2484 2328 2034 2328 
Q 1584 2328 1336 2051 
Q 1088 1775 1088 1275 
Q 1088 772 1336 495 
Q 1584 219 2034 219 
Q 2484 219 2732 495 
Q 2981 772 2981 1275 
z
M 2853 3541 
Q 2853 3966 2637 4203 
Q 2422 4441 2034 4441 
Q 1650 4441 1433 4203 
Q 1216 3966 1216 3541 
Q 1216 3113 1433 2875 
Q 1650 2638 2034 2638 
Q 2422 2638 2637 2875 
Q 2853 3113 2853 3541 
z
M 2516 2484 
Q 3047 2413 3344 2092 
Q 3641 1772 3641 1275 
Q 3641 619 3225 264 
Q 2809 -91 2034 -91 
Q 1263 -91 845 264 
Q 428 619 428 1275 
Q 428 1772 725 2092 
Q 1022 2413 1556 2484 
Q 1084 2569 832 2842 
Q 581 3116 581 3541 
Q 581 4103 968 4426 
Q 1356 4750 2034 4750 
Q 2713 4750 3100 4426 
Q 3488 4103 3488 3541 
Q 3488 3116 3236 2842 
Q 2984 2569 2516 2484 
z
" transform="scale(0.015625)"/>
       </defs>
       <use xlink:href="#DejaVuSerif-30"/>
       <use xlink:href="#DejaVuSerif-2e" transform="translate(63.623047 0)"/>
       <use xlink:href="#DejaVuSerif-38" transform="translate(95.410156 0)"/>
      </g>
     </g>
    </g>
    <g id="xtick_6">
     <g id="line2d_11">
      <path d="M 362.740568 299.518125 
L 362.740568 22.318125 
" clip-path="url(#p307b602bb1)" style="fill: none; stroke-dasharray: 0.8,1.32; stroke-dashoffset: 0; stroke: #b0b0b0; stroke-opacity: 0.6; stroke-width: 0.8"/>
     </g>
     <g id="line2d_12">
      <g>
       <use xlink:href="#ma730710c55" x="362.740568" y="299.518125" style="stroke: #000000; stroke-width: 0.8"/>
      </g>
     </g>
     <g id="text_6">
      <!-- 1.0 -->
      <g transform="translate(355.584162 313.356719) scale(0.09 -0.09)">
       <defs>
        <path id="DejaVuSerif-31" d="M 909 0 
L 909 331 
L 1722 331 
L 1722 4213 
L 781 3603 
L 781 4013 
L 1919 4750 
L 2350 4750 
L 2350 331 
L 3163 331 
L 3163 0 
L 909 0 
z
" transform="scale(0.015625)"/>
       </defs>
       <use xlink:href="#DejaVuSerif-31"/>
       <use xlink:href="#DejaVuSerif-2e" transform="translate(63.623047 0)"/>
       <use xlink:href="#DejaVuSerif-30" transform="translate(95.410156 0)"/>
      </g>
     </g>
    </g>
    <g id="text_7">
     <!-- Mean Predicted Hallucination Probability -->
     <g transform="translate(94.498438 327.586719) scale(0.11 -0.11)">
      <defs>
       <path id="DejaVuSerif-4d" d="M 353 0 
L 353 331 
L 947 331 
L 947 4331 
L 319 4331 
L 319 4666 
L 1678 4666 
L 3316 1344 
L 4953 4666 
L 6228 4666 
L 6228 4331 
L 5606 4331 
L 5606 331 
L 6203 331 
L 6203 0 
L 4378 0 
L 4378 331 
L 4972 331 
L 4972 3938 
L 3372 684 
L 2931 684 
L 1331 3938 
L 1331 331 
L 1925 331 
L 1925 0 
L 353 0 
z
" transform="scale(0.015625)"/>
       <path id="DejaVuSerif-65" d="M 3469 1600 
L 991 1600 
L 991 1575 
Q 991 903 1244 561 
Q 1497 219 1991 219 
Q 2369 219 2611 417 
Q 2853 616 2950 1006 
L 3413 1006 
Q 3275 459 2904 184 
Q 2534 -91 1931 -91 
Q 1203 -91 761 389 
Q 319 869 319 1663 
Q 319 2450 753 2931 
Q 1188 3413 1894 3413 
Q 2647 3413 3050 2948 
Q 3453 2484 3469 1600 
z
M 2791 1931 
Q 2772 2513 2545 2808 
Q 2319 3103 1894 3103 
Q 1497 3103 1269 2806 
Q 1041 2509 991 1931 
L 2791 1931 
z
" transform="scale(0.015625)"/>
       <path id="DejaVuSerif-61" d="M 2547 1044 
L 2547 1747 
L 1806 1747 
Q 1378 1747 1168 1562 
Q 959 1378 959 997 
Q 959 650 1171 447 
Q 1384 244 1747 244 
Q 2106 244 2326 466 
Q 2547 688 2547 1044 
z
M 3122 2075 
L 3122 331 
L 3634 331 
L 3634 0 
L 2547 0 
L 2547 359 
Q 2356 128 2106 18 
Q 1856 -91 1522 -91 
Q 969 -91 644 203 
Q 319 497 319 997 
Q 319 1513 691 1797 
Q 1063 2081 1741 2081 
L 2547 2081 
L 2547 2309 
Q 2547 2688 2317 2895 
Q 2088 3103 1672 3103 
Q 1328 3103 1125 2947 
Q 922 2791 872 2484 
L 575 2484 
L 575 3156 
Q 875 3284 1158 3348 
Q 1441 3413 1709 3413 
Q 2400 3413 2761 3070 
Q 3122 2728 3122 2075 
z
" transform="scale(0.015625)"/>
       <path id="DejaVuSerif-6e" d="M 263 0 
L 263 331 
L 781 331 
L 781 2988 
L 231 2988 
L 231 3322 
L 1356 3322 
L 1356 2731 
Q 1516 3069 1770 3241 
Q 2025 3413 2363 3413 
Q 2913 3413 3172 3097 
Q 3431 2781 3431 2113 
L 3431 331 
L 3944 331 
L 3944 0 
L 2356 0 
L 2356 331 
L 2853 331 
L 2853 1931 
Q 2853 2541 2703 2767 
Q 2553 2994 2175 2994 
Q 1775 2994 1565 2701 
Q 1356 2409 1356 1850 
L 1356 331 
L 1856 331 
L 1856 0 
L 263 0 
z
" transform="scale(0.015625)"/>
       <path id="DejaVuSerif-20" transform="scale(0.015625)"/>
       <path id="DejaVuSerif-50" d="M 1581 2375 
L 2406 2375 
Q 2872 2375 3115 2626 
Q 3359 2878 3359 3353 
Q 3359 3831 3115 4081 
Q 2872 4331 2406 4331 
L 1581 4331 
L 1581 2375 
z
M 353 0 
L 353 331 
L 947 331 
L 947 4331 
L 353 4331 
L 353 4666 
L 2559 4666 
Q 3259 4666 3668 4311 
Q 4078 3956 4078 3353 
Q 4078 2753 3668 2397 
Q 3259 2041 2559 2041 
L 1581 2041 
L 1581 331 
L 2303 331 
L 2303 0 
L 353 0 
z
" transform="scale(0.015625)"/>
       <path id="DejaVuSerif-72" d="M 3059 3328 
L 3059 2497 
L 2728 2497 
Q 2713 2744 2591 2866 
Q 2469 2988 2234 2988 
Q 1809 2988 1582 2694 
Q 1356 2400 1356 1850 
L 1356 331 
L 2022 331 
L 2022 0 
L 263 0 
L 263 331 
L 781 331 
L 781 2994 
L 231 2994 
L 231 3322 
L 1356 3322 
L 1356 2731 
Q 1525 3078 1790 3245 
Q 2056 3413 2438 3413 
Q 2578 3413 2733 3391 
Q 2888 3369 3059 3328 
z
" transform="scale(0.015625)"/>
       <path id="DejaVuSerif-64" d="M 3359 331 
L 3909 331 
L 3909 0 
L 2784 0 
L 2784 519 
Q 2616 206 2355 57 
Q 2094 -91 1709 -91 
Q 1097 -91 708 395 
Q 319 881 319 1663 
Q 319 2444 706 2928 
Q 1094 3413 1709 3413 
Q 2094 3413 2355 3264 
Q 2616 3116 2784 2803 
L 2784 4531 
L 2241 4531 
L 2241 4863 
L 3359 4863 
L 3359 331 
z
M 2784 1497 
L 2784 1825 
Q 2784 2422 2554 2737 
Q 2325 3053 1888 3053 
Q 1444 3053 1217 2703 
Q 991 2353 991 1663 
Q 991 975 1217 622 
Q 1444 269 1888 269 
Q 2325 269 2554 583 
Q 2784 897 2784 1497 
z
" transform="scale(0.015625)"/>
       <path id="DejaVuSerif-69" d="M 622 4353 
Q 622 4497 726 4603 
Q 831 4709 978 4709 
Q 1122 4709 1226 4603 
Q 1331 4497 1331 4353 
Q 1331 4206 1228 4103 
Q 1125 4000 978 4000 
Q 831 4000 726 4103 
Q 622 4206 622 4353 
z
M 1356 331 
L 1900 331 
L 1900 0 
L 231 0 
L 231 331 
L 781 331 
L 781 2988 
L 231 2988 
L 231 3322 
L 1356 3322 
L 1356 331 
z
" transform="scale(0.015625)"/>
       <path id="DejaVuSerif-63" d="M 3291 997 
Q 3169 466 2822 187 
Q 2475 -91 1925 -91 
Q 1200 -91 759 389 
Q 319 869 319 1663 
Q 319 2459 759 2936 
Q 1200 3413 1925 3413 
Q 2241 3413 2553 3339 
Q 2866 3266 3181 3116 
L 3181 2266 
L 2847 2266 
Q 2781 2703 2561 2903 
Q 2341 3103 1931 3103 
Q 1466 3103 1228 2742 
Q 991 2381 991 1663 
Q 991 944 1227 581 
Q 1463 219 1931 219 
Q 2303 219 2525 412 
Q 2747 606 2828 997 
L 3291 997 
z
" transform="scale(0.015625)"/>
       <path id="DejaVuSerif-74" d="M 691 2988 
L 184 2988 
L 184 3322 
L 691 3322 
L 691 4353 
L 1269 4353 
L 1269 3322 
L 2350 3322 
L 2350 2988 
L 1269 2988 
L 1269 878 
Q 1269 456 1350 337 
Q 1431 219 1650 219 
Q 1875 219 1978 351 
Q 2081 484 2088 781 
L 2522 781 
Q 2497 328 2275 118 
Q 2053 -91 1600 -91 
Q 1103 -91 897 129 
Q 691 350 691 878 
L 691 2988 
z
" transform="scale(0.015625)"/>
       <path id="DejaVuSerif-48" d="M 353 0 
L 353 331 
L 947 331 
L 947 4331 
L 353 4331 
L 353 4666 
L 2175 4666 
L 2175 4331 
L 1581 4331 
L 1581 2719 
L 4000 2719 
L 4000 4331 
L 3406 4331 
L 3406 4666 
L 5228 4666 
L 5228 4331 
L 4634 4331 
L 4634 331 
L 5228 331 
L 5228 0 
L 3406 0 
L 3406 331 
L 4000 331 
L 4000 2338 
L 1581 2338 
L 1581 331 
L 2175 331 
L 2175 0 
L 353 0 
z
" transform="scale(0.015625)"/>
       <path id="DejaVuSerif-6c" d="M 1313 331 
L 1856 331 
L 1856 0 
L 184 0 
L 184 331 
L 738 331 
L 738 4531 
L 184 4531 
L 184 4863 
L 1313 4863 
L 1313 331 
z
" transform="scale(0.015625)"/>
       <path id="DejaVuSerif-75" d="M 2266 3322 
L 3341 3322 
L 3341 331 
L 3884 331 
L 3884 0 
L 2766 0 
L 2766 588 
Q 2606 256 2353 82 
Q 2100 -91 1766 -91 
Q 1213 -91 952 223 
Q 691 538 691 1209 
L 691 2988 
L 172 2988 
L 172 3322 
L 1269 3322 
L 1269 1388 
Q 1269 781 1417 556 
Q 1566 331 1947 331 
Q 2347 331 2556 625 
Q 2766 919 2766 1478 
L 2766 2988 
L 2266 2988 
L 2266 3322 
z
" transform="scale(0.015625)"/>
       <path id="DejaVuSerif-6f" d="M 1925 219 
Q 2388 219 2623 584 
Q 2859 950 2859 1663 
Q 2859 2375 2623 2739 
Q 2388 3103 1925 3103 
Q 1463 3103 1227 2739 
Q 991 2375 991 1663 
Q 991 950 1228 584 
Q 1466 219 1925 219 
z
M 1925 -91 
Q 1200 -91 759 389 
Q 319 869 319 1663 
Q 319 2456 758 2934 
Q 1197 3413 1925 3413 
Q 2653 3413 3092 2934 
Q 3531 2456 3531 1663 
Q 3531 869 3092 389 
Q 2653 -91 1925 -91 
z
" transform="scale(0.015625)"/>
       <path id="DejaVuSerif-62" d="M 738 331 
L 738 4531 
L 184 4531 
L 184 4863 
L 1313 4863 
L 1313 2803 
Q 1481 3116 1742 3264 
Q 2003 3413 2388 3413 
Q 3000 3413 3387 2928 
Q 3775 2444 3775 1663 
Q 3775 881 3387 395 
Q 3000 -91 2388 -91 
Q 2003 -91 1742 57 
Q 1481 206 1313 519 
L 1313 0 
L 184 0 
L 184 331 
L 738 331 
z
M 1313 1497 
Q 1313 897 1542 583 
Q 1772 269 2209 269 
Q 2650 269 2876 622 
Q 3103 975 3103 1663 
Q 3103 2353 2876 2703 
Q 2650 3053 2209 3053 
Q 1772 3053 1542 2737 
Q 1313 2422 1313 1825 
L 1313 1497 
z
" transform="scale(0.015625)"/>
       <path id="DejaVuSerif-79" d="M 1381 -609 
L 1600 -56 
L 359 2988 
L -19 2988 
L -19 3322 
L 1509 3322 
L 1509 2988 
L 978 2988 
L 1913 703 
L 2847 2988 
L 2350 2988 
L 2350 3322 
L 3597 3322 
L 3597 2988 
L 3225 2988 
L 1703 -750 
Q 1547 -1138 1356 -1280 
Q 1166 -1422 819 -1422 
Q 672 -1422 517 -1397 
Q 363 -1372 206 -1325 
L 206 -691 
L 500 -691 
Q 519 -903 608 -995 
Q 697 -1088 884 -1088 
Q 1056 -1088 1161 -992 
Q 1266 -897 1381 -609 
z
" transform="scale(0.015625)"/>
      </defs>
      <use xlink:href="#DejaVuSerif-4d"/>
      <use xlink:href="#DejaVuSerif-65" transform="translate(102.392578 0)"/>
      <use xlink:href="#DejaVuSerif-61" transform="translate(161.572266 0)"/>
      <use xlink:href="#DejaVuSerif-6e" transform="translate(221.191406 0)"/>
      <use xlink:href="#DejaVuSerif-20" transform="translate(285.595703 0)"/>
      <use xlink:href="#DejaVuSerif-50" transform="translate(317.382812 0)"/>
      <use xlink:href="#DejaVuSerif-72" transform="translate(384.667969 0)"/>
      <use xlink:href="#DejaVuSerif-65" transform="translate(432.470703 0)"/>
      <use xlink:href="#DejaVuSerif-64" transform="translate(491.650391 0)"/>
      <use xlink:href="#DejaVuSerif-69" transform="translate(555.664062 0)"/>
      <use xlink:href="#DejaVuSerif-63" transform="translate(587.646484 0)"/>
      <use xlink:href="#DejaVuSerif-74" transform="translate(643.652344 0)"/>
      <use xlink:href="#DejaVuSerif-65" transform="translate(683.837891 0)"/>
      <use xlink:href="#DejaVuSerif-64" transform="translate(743.017578 0)"/>
      <use xlink:href="#DejaVuSerif-20" transform="translate(807.03125 0)"/>
      <use xlink:href="#DejaVuSerif-48" transform="translate(838.818359 0)"/>
      <use xlink:href="#DejaVuSerif-61" transform="translate(926.025391 0)"/>
      <use xlink:href="#DejaVuSerif-6c" transform="translate(985.644531 0)"/>
      <use xlink:href="#DejaVuSerif-6c" transform="translate(1017.626953 0)"/>
      <use xlink:href="#DejaVuSerif-75" transform="translate(1049.609375 0)"/>
      <use xlink:href="#DejaVuSerif-63" transform="translate(1114.013672 0)"/>
      <use xlink:href="#DejaVuSerif-69" transform="translate(1170.019531 0)"/>
      <use xlink:href="#DejaVuSerif-6e" transform="translate(1202.001953 0)"/>
      <use xlink:href="#DejaVuSerif-61" transform="translate(1266.40625 0)"/>
      <use xlink:href="#DejaVuSerif-74" transform="translate(1326.025391 0)"/>
      <use xlink:href="#DejaVuSerif-69" transform="translate(1366.210938 0)"/>
      <use xlink:href="#DejaVuSerif-6f" transform="translate(1398.193359 0)"/>
      <use xlink:href="#DejaVuSerif-6e" transform="translate(1458.398438 0)"/>
      <use xlink:href="#DejaVuSerif-20" transform="translate(1522.802734 0)"/>
      <use xlink:href="#DejaVuSerif-50" transform="translate(1554.589844 0)"/>
      <use xlink:href="#DejaVuSerif-72" transform="translate(1621.875 0)"/>
      <use xlink:href="#DejaVuSerif-6f" transform="translate(1669.677734 0)"/>
      <use xlink:href="#DejaVuSerif-62" transform="translate(1729.882812 0)"/>
      <use xlink:href="#DejaVuSerif-61" transform="translate(1793.896484 0)"/>
      <use xlink:href="#DejaVuSerif-62" transform="translate(1853.515625 0)"/>
      <use xlink:href="#DejaVuSerif-69" transform="translate(1917.529297 0)"/>
      <use xlink:href="#DejaVuSerif-6c" transform="translate(1949.511719 0)"/>
      <use xlink:href="#DejaVuSerif-69" transform="translate(1981.494141 0)"/>
      <use xlink:href="#DejaVuSerif-74" transform="translate(2013.476562 0)"/>
      <use xlink:href="#DejaVuSerif-79" transform="translate(2053.662109 0)"/>
     </g>
    </g>
   </g>
   <g id="matplotlib.axis_2">
    <g id="ytick_1">
     <g id="line2d_13">
      <path d="M 43.15875 286.918125 
L 377.95875 286.918125 
" clip-path="url(#p307b602bb1)" style="fill: none; stroke-dasharray: 0.8,1.32; stroke-dashoffset: 0; stroke: #b0b0b0; stroke-opacity: 0.6; stroke-width: 0.8"/>
     </g>
     <g id="line2d_14">
      <defs>
       <path id="m0252b0186b" d="M 0 0 
L -3.5 0 
" style="stroke: #000000; stroke-width: 0.8"/>
      </defs>
      <g>
       <use xlink:href="#m0252b0186b" x="43.15875" y="286.918125" style="stroke: #000000; stroke-width: 0.8"/>
      </g>
     </g>
     <g id="text_8">
      <!-- 0.0 -->
      <g transform="translate(21.845938 290.337422) scale(0.09 -0.09)">
       <use xlink:href="#DejaVuSerif-30"/>
       <use xlink:href="#DejaVuSerif-2e" transform="translate(63.623047 0)"/>
       <use xlink:href="#DejaVuSerif-30" transform="translate(95.410156 0)"/>
      </g>
     </g>
    </g>
    <g id="ytick_2">
     <g id="line2d_15">
      <path d="M 43.15875 236.518125 
L 377.95875 236.518125 
" clip-path="url(#p307b602bb1)" style="fill: none; stroke-dasharray: 0.8,1.32; stroke-dashoffset: 0; stroke: #b0b0b0; stroke-opacity: 0.6; stroke-width: 0.8"/>
     </g>
     <g id="line2d_16">
      <g>
       <use xlink:href="#m0252b0186b" x="43.15875" y="236.518125" style="stroke: #000000; stroke-width: 0.8"/>
      </g>
     </g>
     <g id="text_9">
      <!-- 0.2 -->
      <g transform="translate(21.845938 239.937422) scale(0.09 -0.09)">
       <use xlink:href="#DejaVuSerif-30"/>
       <use xlink:href="#DejaVuSerif-2e" transform="translate(63.623047 0)"/>
       <use xlink:href="#DejaVuSerif-32" transform="translate(95.410156 0)"/>
      </g>
     </g>
    </g>
    <g id="ytick_3">
     <g id="line2d_17">
      <path d="M 43.15875 186.118125 
L 377.95875 186.118125 
" clip-path="url(#p307b602bb1)" style="fill: none; stroke-dasharray: 0.8,1.32; stroke-dashoffset: 0; stroke: #b0b0b0; stroke-opacity: 0.6; stroke-width: 0.8"/>
     </g>
     <g id="line2d_18">
      <g>
       <use xlink:href="#m0252b0186b" x="43.15875" y="186.118125" style="stroke: #000000; stroke-width: 0.8"/>
      </g>
     </g>
     <g id="text_10">
      <!-- 0.4 -->
      <g transform="translate(21.845938 189.537422) scale(0.09 -0.09)">
       <use xlink:href="#DejaVuSerif-30"/>
       <use xlink:href="#DejaVuSerif-2e" transform="translate(63.623047 0)"/>
       <use xlink:href="#DejaVuSerif-34" transform="translate(95.410156 0)"/>
      </g>
     </g>
    </g>
    <g id="ytick_4">
     <g id="line2d_19">
      <path d="M 43.15875 135.718125 
L 377.95875 135.718125 
" clip-path="url(#p307b602bb1)" style="fill: none; stroke-dasharray: 0.8,1.32; stroke-dashoffset: 0; stroke: #b0b0b0; stroke-opacity: 0.6; stroke-width: 0.8"/>
     </g>
     <g id="line2d_20">
      <g>
       <use xlink:href="#m0252b0186b" x="43.15875" y="135.718125" style="stroke: #000000; stroke-width: 0.8"/>
      </g>
     </g>
     <g id="text_11">
      <!-- 0.6 -->
      <g transform="translate(21.845938 139.137422) scale(0.09 -0.09)">
       <use xlink:href="#DejaVuSerif-30"/>
       <use xlink:href="#DejaVuSerif-2e" transform="translate(63.623047 0)"/>
       <use xlink:href="#DejaVuSerif-36" transform="translate(95.410156 0)"/>
      </g>
     </g>
    </g>
    <g id="ytick_5">
     <g id="line2d_21">
      <path d="M 43.15875 85.318125 
L 377.95875 85.318125 
" clip-path="url(#p307b602bb1)" style="fill: none; stroke-dasharray: 0.8,1.32; stroke-dashoffset: 0; stroke: #b0b0b0; stroke-opacity: 0.6; stroke-width: 0.8"/>
     </g>
     <g id="line2d_22">
      <g>
       <use xlink:href="#m0252b0186b" x="43.15875" y="85.318125" style="stroke: #000000; stroke-width: 0.8"/>
      </g>
     </g>
     <g id="text_12">
      <!-- 0.8 -->
      <g transform="translate(21.845938 88.737422) scale(0.09 -0.09)">
       <use xlink:href="#DejaVuSerif-30"/>
       <use xlink:href="#DejaVuSerif-2e" transform="translate(63.623047 0)"/>
       <use xlink:href="#DejaVuSerif-38" transform="translate(95.410156 0)"/>
      </g>
     </g>
    </g>
    <g id="ytick_6">
     <g id="line2d_23">
      <path d="M 43.15875 34.918125 
L 377.95875 34.918125 
" clip-path="url(#p307b602bb1)" style="fill: none; stroke-dasharray: 0.8,1.32; stroke-dashoffset: 0; stroke: #b0b0b0; stroke-opacity: 0.6; stroke-width: 0.8"/>
     </g>
     <g id="line2d_24">
      <g>
       <use xlink:href="#m0252b0186b" x="43.15875" y="34.918125" style="stroke: #000000; stroke-width: 0.8"/>
      </g>
     </g>
     <g id="text_13">
      <!-- 1.0 -->
      <g transform="translate(21.845938 38.337422) scale(0.09 -0.09)">
       <use xlink:href="#DejaVuSerif-31"/>
       <use xlink:href="#DejaVuSerif-2e" transform="translate(63.623047 0)"/>
       <use xlink:href="#DejaVuSerif-30" transform="translate(95.410156 0)"/>
      </g>
     </g>
    </g>
    <g id="text_14">
     <!-- Fraction of True Hallucinations -->
     <g transform="translate(15.558281 248.674063) rotate(-90) scale(0.11 -0.11)">
      <defs>
       <path id="DejaVuSerif-46" d="M 353 0 
L 353 331 
L 947 331 
L 947 4331 
L 353 4331 
L 353 4666 
L 4172 4666 
L 4172 3628 
L 3788 3628 
L 3788 4281 
L 1581 4281 
L 1581 2719 
L 3175 2719 
L 3175 3303 
L 3559 3303 
L 3559 1753 
L 3175 1753 
L 3175 2338 
L 1581 2338 
L 1581 331 
L 2328 331 
L 2328 0 
L 353 0 
z
" transform="scale(0.015625)"/>
       <path id="DejaVuSerif-66" d="M 2753 4078 
L 2450 4078 
Q 2447 4313 2317 4434 
Q 2188 4556 1941 4556 
Q 1619 4556 1487 4379 
Q 1356 4203 1356 3750 
L 1356 3322 
L 2284 3322 
L 2284 2988 
L 1356 2988 
L 1356 331 
L 2094 331 
L 2094 0 
L 231 0 
L 231 331 
L 781 331 
L 781 2988 
L 231 2988 
L 231 3322 
L 781 3322 
L 781 3738 
Q 781 4294 1070 4578 
Q 1359 4863 1919 4863 
Q 2128 4863 2337 4825 
Q 2547 4788 2753 4709 
L 2753 4078 
z
" transform="scale(0.015625)"/>
       <path id="DejaVuSerif-54" d="M 1222 0 
L 1222 331 
L 1819 331 
L 1819 4294 
L 447 4294 
L 447 3566 
L 63 3566 
L 63 4666 
L 4206 4666 
L 4206 3566 
L 3822 3566 
L 3822 4294 
L 2450 4294 
L 2450 331 
L 3047 331 
L 3047 0 
L 1222 0 
z
" transform="scale(0.015625)"/>
       <path id="DejaVuSerif-73" d="M 359 184 
L 359 959 
L 691 959 
Q 703 588 923 403 
Q 1144 219 1575 219 
Q 1963 219 2166 364 
Q 2369 509 2369 788 
Q 2369 1006 2220 1140 
Q 2072 1275 1594 1428 
L 1178 1569 
Q 750 1706 558 1912 
Q 366 2119 366 2438 
Q 366 2894 700 3153 
Q 1034 3413 1625 3413 
Q 1888 3413 2178 3344 
Q 2469 3275 2778 3144 
L 2778 2419 
L 2447 2419 
Q 2434 2741 2221 2922 
Q 2009 3103 1644 3103 
Q 1281 3103 1095 2975 
Q 909 2847 909 2591 
Q 909 2381 1050 2254 
Q 1191 2128 1613 1997 
L 2069 1856 
Q 2541 1709 2748 1489 
Q 2956 1269 2956 922 
Q 2956 450 2595 179 
Q 2234 -91 1600 -91 
Q 1278 -91 972 -22 
Q 666 47 359 184 
z
" transform="scale(0.015625)"/>
      </defs>
      <use xlink:href="#DejaVuSerif-46"/>
      <use xlink:href="#DejaVuSerif-72" transform="translate(69.384766 0)"/>
      <use xlink:href="#DejaVuSerif-61" transform="translate(117.1875 0)"/>
      <use xlink:href="#DejaVuSerif-63" transform="translate(176.806641 0)"/>
      <use xlink:href="#DejaVuSerif-74" transform="translate(232.8125 0)"/>
      <use xlink:href="#DejaVuSerif-69" transform="translate(272.998047 0)"/>
      <use xlink:href="#DejaVuSerif-6f" transform="translate(304.980469 0)"/>
      <use xlink:href="#DejaVuSerif-6e" transform="translate(365.185547 0)"/>
      <use xlink:href="#DejaVuSerif-20" transform="translate(429.589844 0)"/>
      <use xlink:href="#DejaVuSerif-6f" transform="translate(461.376953 0)"/>
      <use xlink:href="#DejaVuSerif-66" transform="translate(521.582031 0)"/>
      <use xlink:href="#DejaVuSerif-20" transform="translate(558.59375 0)"/>
      <use xlink:href="#DejaVuSerif-54" transform="translate(590.380859 0)"/>
      <use xlink:href="#DejaVuSerif-72" transform="translate(657.080078 0)"/>
      <use xlink:href="#DejaVuSerif-75" transform="translate(704.882812 0)"/>
      <use xlink:href="#DejaVuSerif-65" transform="translate(769.287109 0)"/>
      <use xlink:href="#DejaVuSerif-20" transform="translate(828.466797 0)"/>
      <use xlink:href="#DejaVuSerif-48" transform="translate(860.253906 0)"/>
      <use xlink:href="#DejaVuSerif-61" transform="translate(947.460938 0)"/>
      <use xlink:href="#DejaVuSerif-6c" transform="translate(1007.080078 0)"/>
      <use xlink:href="#DejaVuSerif-6c" transform="translate(1039.0625 0)"/>
      <use xlink:href="#DejaVuSerif-75" transform="translate(1071.044922 0)"/>
      <use xlink:href="#DejaVuSerif-63" transform="translate(1135.449219 0)"/>
      <use xlink:href="#DejaVuSerif-69" transform="translate(1191.455078 0)"/>
      <use xlink:href="#DejaVuSerif-6e" transform="translate(1223.4375 0)"/>
      <use xlink:href="#DejaVuSerif-61" transform="translate(1287.841797 0)"/>
      <use xlink:href="#DejaVuSerif-74" transform="translate(1347.460938 0)"/>
      <use xlink:href="#DejaVuSerif-69" transform="translate(1387.646484 0)"/>
      <use xlink:href="#DejaVuSerif-6f" transform="translate(1419.628906 0)"/>
      <use xlink:href="#DejaVuSerif-6e" transform="translate(1479.833984 0)"/>
      <use xlink:href="#DejaVuSerif-73" transform="translate(1544.238281 0)"/>
     </g>
    </g>
   </g>
   <g id="line2d_25">
    <path d="M 58.376932 286.918125 
L 362.740568 34.918125 
" clip-path="url(#p307b602bb1)" style="fill: none; stroke-dasharray: 5.55,2.4; stroke-dashoffset: 0; stroke: #000000; stroke-width: 1.5"/>
   </g>
   <g id="line2d_26">
    <path d="M 73.595114 279.358125 
L 104.031477 246.598125 
L 134.467841 226.438125 
L 164.904205 193.678125 
L 195.340568 176.038125 
L 225.776932 145.798125 
L 256.213295 128.158125 
L 286.649659 95.398125 
L 317.086023 72.718125 
L 347.522386 50.038125 
" clip-path="url(#p307b602bb1)" style="fill: none; stroke: #10b981; stroke-width: 2; stroke-linecap: square"/>
    <defs>
     <path id="m6351fc4179" d="M -3 3 
L 3 3 
L 3 -3 
L -3 -3 
z
" style="stroke: #10b981; stroke-linejoin: miter"/>
    </defs>
    <g clip-path="url(#p307b602bb1)">
     <use xlink:href="#m6351fc4179" x="73.595114" y="279.358125" style="fill: #10b981; stroke: #10b981; stroke-linejoin: miter"/>
     <use xlink:href="#m6351fc4179" x="104.031477" y="246.598125" style="fill: #10b981; stroke: #10b981; stroke-linejoin: miter"/>
     <use xlink:href="#m6351fc4179" x="134.467841" y="226.438125" style="fill: #10b981; stroke: #10b981; stroke-linejoin: miter"/>
     <use xlink:href="#m6351fc4179" x="164.904205" y="193.678125" style="fill: #10b981; stroke: #10b981; stroke-linejoin: miter"/>
     <use xlink:href="#m6351fc4179" x="195.340568" y="176.038125" style="fill: #10b981; stroke: #10b981; stroke-linejoin: miter"/>
     <use xlink:href="#m6351fc4179" x="225.776932" y="145.798125" style="fill: #10b981; stroke: #10b981; stroke-linejoin: miter"/>
     <use xlink:href="#m6351fc4179" x="256.213295" y="128.158125" style="fill: #10b981; stroke: #10b981; stroke-linejoin: miter"/>
     <use xlink:href="#m6351fc4179" x="286.649659" y="95.398125" style="fill: #10b981; stroke: #10b981; stroke-linejoin: miter"/>
     <use xlink:href="#m6351fc4179" x="317.086023" y="72.718125" style="fill: #10b981; stroke: #10b981; stroke-linejoin: miter"/>
     <use xlink:href="#m6351fc4179" x="347.522386" y="50.038125" style="fill: #10b981; stroke: #10b981; stroke-linejoin: miter"/>
    </g>
   </g>
   <g id="patch_3">
    <path d="M 43.15875 299.518125 
L 43.15875 22.318125 
" style="fill: none; stroke: #000000; stroke-width: 0.8; stroke-linejoin: miter; stroke-linecap: square"/>
   </g>
   <g id="patch_4">
    <path d="M 377.95875 299.518125 
L 377.95875 22.318125 
" style="fill: none; stroke: #000000; stroke-width: 0.8; stroke-linejoin: miter; stroke-linecap: square"/>
   </g>
   <g id="patch_5">
    <path d="M 43.15875 299.518125 
L 377.95875 299.518125 
" style="fill: none; stroke: #000000; stroke-width: 0.8; stroke-linejoin: miter; stroke-linecap: square"/>
   </g>
   <g id="patch_6">
    <path d="M 43.15875 22.318125 
L 377.95875 22.318125 
" style="fill: none; stroke: #000000; stroke-width: 0.8; stroke-linejoin: miter; stroke-linecap: square"/>
   </g>
   <g id="text_15">
    <!-- Figure 1: Platt-Scaled Calibration Curve (ECE = 0.024) -->
    <g transform="translate(41.820938 16.318125) scale(0.12 -0.12)">
     <defs>
      <path id="DejaVuSerif-67" d="M 3359 2988 
L 3359 72 
Q 3359 -644 2965 -1033 
Q 2572 -1422 1844 -1422 
Q 1516 -1422 1216 -1362 
Q 916 -1303 641 -1184 
L 641 -488 
L 941 -488 
Q 997 -813 1206 -963 
Q 1416 -1113 1806 -1113 
Q 2313 -1113 2548 -827 
Q 2784 -541 2784 72 
L 2784 519 
Q 2616 206 2355 57 
Q 2094 -91 1709 -91 
Q 1097 -91 708 395 
Q 319 881 319 1663 
Q 319 2444 706 2928 
Q 1094 3413 1709 3413 
Q 2094 3413 2355 3264 
Q 2616 3116 2784 2803 
L 2784 3322 
L 3909 3322 
L 3909 2988 
L 3359 2988 
z
M 2784 1825 
Q 2784 2422 2554 2737 
Q 2325 3053 1888 3053 
Q 1444 3053 1217 2703 
Q 991 2353 991 1663 
Q 991 975 1217 622 
Q 1444 269 1888 269 
Q 2325 269 2554 583 
Q 2784 897 2784 1497 
L 2784 1825 
z
" transform="scale(0.015625)"/>
      <path id="DejaVuSerif-3a" d="M 666 325 
Q 666 500 786 622 
Q 906 744 1081 744 
Q 1256 744 1376 622 
Q 1497 500 1497 325 
Q 1497 150 1378 29 
Q 1259 -91 1081 -91 
Q 903 -91 784 29 
Q 666 150 666 325 
z
M 666 2363 
Q 666 2538 786 2658 
Q 906 2778 1081 2778 
Q 1259 2778 1378 2659 
Q 1497 2541 1497 2363 
Q 1497 2184 1378 2065 
Q 1259 1947 1081 1947 
Q 906 1947 786 2067 
Q 666 2188 666 2363 
z
" transform="scale(0.015625)"/>
      <path id="DejaVuSerif-2d" d="M 281 1959 
L 1881 1959 
L 1881 1472 
L 281 1472 
L 281 1959 
z
" transform="scale(0.015625)"/>
      <path id="DejaVuSerif-53" d="M 594 225 
L 594 1288 
L 953 1284 
Q 969 753 1261 498 
Q 1553 244 2150 244 
Q 2706 244 2998 464 
Q 3291 684 3291 1106 
Q 3291 1444 3114 1625 
Q 2938 1806 2369 1978 
L 1753 2163 
Q 1084 2366 811 2669 
Q 538 2972 538 3500 
Q 538 4094 959 4422 
Q 1381 4750 2144 4750 
Q 2469 4750 2856 4679 
Q 3244 4609 3681 4475 
L 3681 3481 
L 3328 3481 
Q 3275 3975 2998 4195 
Q 2722 4416 2156 4416 
Q 1663 4416 1405 4214 
Q 1147 4013 1147 3628 
Q 1147 3294 1340 3103 
Q 1534 2913 2163 2725 
L 2741 2553 
Q 3375 2363 3645 2067 
Q 3916 1772 3916 1275 
Q 3916 597 3481 253 
Q 3047 -91 2188 -91 
Q 1803 -91 1404 -12 
Q 1006 66 594 225 
z
" transform="scale(0.015625)"/>
      <path id="DejaVuSerif-43" d="M 4513 1234 
Q 4306 581 3820 245 
Q 3334 -91 2591 -91 
Q 2134 -91 1743 65 
Q 1353 222 1050 525 
Q 700 875 529 1320 
Q 359 1766 359 2328 
Q 359 3416 987 4083 
Q 1616 4750 2644 4750 
Q 3025 4750 3456 4650 
Q 3888 4550 4384 4347 
L 4384 3272 
L 4031 3272 
Q 3916 3859 3567 4137 
Q 3219 4416 2591 4416 
Q 1844 4416 1459 3886 
Q 1075 3356 1075 2328 
Q 1075 1303 1459 773 
Q 1844 244 2591 244 
Q 3113 244 3450 492 
Q 3788 741 3938 1234 
L 4513 1234 
z
" transform="scale(0.015625)"/>
      <path id="DejaVuSerif-76" d="M 1581 0 
L 359 2988 
L -19 2988 
L -19 3322 
L 1509 3322 
L 1509 2988 
L 978 2988 
L 1913 703 
L 2847 2988 
L 2350 2988 
L 2350 3322 
L 3597 3322 
L 3597 2988 
L 3225 2988 
L 2003 0 
L 1581 0 
z
" transform="scale(0.015625)"/>
      <path id="DejaVuSerif-28" d="M 2041 -997 
Q 1281 -656 893 83 
Q 506 822 506 1931 
Q 506 3044 893 3783 
Q 1281 4522 2041 4863 
L 2041 4556 
Q 1559 4225 1350 3623 
Q 1141 3022 1141 1931 
Q 1141 844 1350 242 
Q 1559 -359 2041 -691 
L 2041 -997 
z
" transform="scale(0.015625)"/>
      <path id="DejaVuSerif-45" d="M 353 0 
L 353 331 
L 947 331 
L 947 4331 
L 353 4331 
L 353 4666 
L 4109 4666 
L 4109 3628 
L 3725 3628 
L 3725 4281 
L 1581 4281 
L 1581 2719 
L 3109 2719 
L 3109 3303 
L 3494 3303 
L 3494 1753 
L 3109 1753 
L 3109 2338 
L 1581 2338 
L 1581 384 
L 3775 384 
L 3775 1038 
L 4159 1038 
L 4159 0 
L 353 0 
z
" transform="scale(0.015625)"/>
      <path id="DejaVuSerif-3d" d="M 678 2894 
L 4684 2894 
L 4684 2394 
L 678 2394 
L 678 2894 
z
M 678 1619 
L 4684 1619 
L 4684 1119 
L 678 1119 
L 678 1619 
z
" transform="scale(0.015625)"/>
      <path id="DejaVuSerif-29" d="M 453 -997 
L 453 -691 
Q 934 -359 1145 242 
Q 1356 844 1356 1931 
Q 1356 3022 1145 3623 
Q 934 4225 453 4556 
L 453 4863 
Q 1216 4522 1603 3783 
Q 1991 3044 1991 1931 
Q 1991 822 1603 83 
Q 1216 -656 453 -997 
z
" transform="scale(0.015625)"/>
     </defs>
     <use xlink:href="#DejaVuSerif-46"/>
     <use xlink:href="#DejaVuSerif-69" transform="translate(69.384766 0)"/>
     <use xlink:href="#DejaVuSerif-67" transform="translate(101.367188 0)"/>
     <use xlink:href="#DejaVuSerif-75" transform="translate(165.380859 0)"/>
     <use xlink:href="#DejaVuSerif-72" transform="translate(229.785156 0)"/>
     <use xlink:href="#DejaVuSerif-65" transform="translate(277.587891 0)"/>
     <use xlink:href="#DejaVuSerif-20" transform="translate(336.767578 0)"/>
     <use xlink:href="#DejaVuSerif-31" transform="translate(368.554688 0)"/>
     <use xlink:href="#DejaVuSerif-3a" transform="translate(432.177734 0)"/>
     <use xlink:href="#DejaVuSerif-20" transform="translate(465.869141 0)"/>
     <use xlink:href="#DejaVuSerif-50" transform="translate(497.65625 0)"/>
     <use xlink:href="#DejaVuSerif-6c" transform="translate(564.941406 0)"/>
     <use xlink:href="#DejaVuSerif-61" transform="translate(596.923828 0)"/>
     <use xlink:href="#DejaVuSerif-74" transform="translate(656.542969 0)"/>
     <use xlink:href="#DejaVuSerif-74" transform="translate(696.728516 0)"/>
     <use xlink:href="#DejaVuSerif-2d" transform="translate(736.914062 0)"/>
     <use xlink:href="#DejaVuSerif-53" transform="translate(770.703125 0)"/>
     <use xlink:href="#DejaVuSerif-63" transform="translate(839.208984 0)"/>
     <use xlink:href="#DejaVuSerif-61" transform="translate(895.214844 0)"/>
     <use xlink:href="#DejaVuSerif-6c" transform="translate(954.833984 0)"/>
     <use xlink:href="#DejaVuSerif-65" transform="translate(986.816406 0)"/>
     <use xlink:href="#DejaVuSerif-64" transform="translate(1045.996094 0)"/>
     <use xlink:href="#DejaVuSerif-20" transform="translate(1110.009766 0)"/>
     <use xlink:href="#DejaVuSerif-43" transform="translate(1141.796875 0)"/>
     <use xlink:href="#DejaVuSerif-61" transform="translate(1218.310547 0)"/>
     <use xlink:href="#DejaVuSerif-6c" transform="translate(1277.929688 0)"/>
     <use xlink:href="#DejaVuSerif-69" transform="translate(1309.912109 0)"/>
     <use xlink:href="#DejaVuSerif-62" transform="translate(1341.894531 0)"/>
     <use xlink:href="#DejaVuSerif-72" transform="translate(1405.908203 0)"/>
     <use xlink:href="#DejaVuSerif-61" transform="translate(1453.710938 0)"/>
     <use xlink:href="#DejaVuSerif-74" transform="translate(1513.330078 0)"/>
     <use xlink:href="#DejaVuSerif-69" transform="translate(1553.515625 0)"/>
     <use xlink:href="#DejaVuSerif-6f" transform="translate(1585.498047 0)"/>
     <use xlink:href="#DejaVuSerif-6e" transform="translate(1645.703125 0)"/>
     <use xlink:href="#DejaVuSerif-20" transform="translate(1710.107422 0)"/>
     <use xlink:href="#DejaVuSerif-43" transform="translate(1741.894531 0)"/>
     <use xlink:href="#DejaVuSerif-75" transform="translate(1818.408203 0)"/>
     <use xlink:href="#DejaVuSerif-72" transform="translate(1882.8125 0)"/>
     <use xlink:href="#DejaVuSerif-76" transform="translate(1930.615234 0)"/>
     <use xlink:href="#DejaVuSerif-65" transform="translate(1987.109375 0)"/>
     <use xlink:href="#DejaVuSerif-20" transform="translate(2046.289062 0)"/>
     <use xlink:href="#DejaVuSerif-28" transform="translate(2078.076172 0)"/>
     <use xlink:href="#DejaVuSerif-45" transform="translate(2117.089844 0)"/>
     <use xlink:href="#DejaVuSerif-43" transform="translate(2190.087891 0)"/>
     <use xlink:href="#DejaVuSerif-45" transform="translate(2266.601562 0)"/>
     <use xlink:href="#DejaVuSerif-20" transform="translate(2339.599609 0)"/>
     <use xlink:href="#DejaVuSerif-3d" transform="translate(2371.386719 0)"/>
     <use xlink:href="#DejaVuSerif-20" transform="translate(2455.175781 0)"/>
     <use xlink:href="#DejaVuSerif-30" transform="translate(2486.962891 0)"/>
     <use xlink:href="#DejaVuSerif-2e" transform="translate(2550.585938 0)"/>
     <use xlink:href="#DejaVuSerif-30" transform="translate(2582.373047 0)"/>
     <use xlink:href="#DejaVuSerif-32" transform="translate(2645.996094 0)"/>
     <use xlink:href="#DejaVuSerif-34" transform="translate(2709.619141 0)"/>
     <use xlink:href="#DejaVuSerif-29" transform="translate(2773.242188 0)"/>
    </g>
   </g>
   <g id="legend_1">
    <g id="patch_7">
     <path d="M 49.45875 55.93875 
L 189.18375 55.93875 
Q 190.98375 55.93875 190.98375 54.13875 
L 190.98375 28.618125 
Q 190.98375 26.818125 189.18375 26.818125 
L 49.45875 26.818125 
Q 47.65875 26.818125 47.65875 28.618125 
L 47.65875 54.13875 
Q 47.65875 55.93875 49.45875 55.93875 
z
" style="fill: #ffffff; opacity: 0.8; stroke: #cccccc; stroke-linejoin: miter"/>
    </g>
    <g id="line2d_27">
     <path d="M 51.25875 34.106719 
L 60.25875 34.106719 
L 69.25875 34.106719 
" style="fill: none; stroke-dasharray: 5.55,2.4; stroke-dashoffset: 0; stroke: #000000; stroke-width: 1.5"/>
    </g>
    <g id="text_16">
     <!-- Perfect Calibration -->
     <g transform="translate(76.45875 37.256719) scale(0.09 -0.09)">
      <use xlink:href="#DejaVuSerif-50"/>
      <use xlink:href="#DejaVuSerif-65" transform="translate(62.785156 0)"/>
      <use xlink:href="#DejaVuSerif-72" transform="translate(121.964844 0)"/>
      <use xlink:href="#DejaVuSerif-66" transform="translate(169.767578 0)"/>
      <use xlink:href="#DejaVuSerif-65" transform="translate(206.779297 0)"/>
      <use xlink:href="#DejaVuSerif-63" transform="translate(265.958984 0)"/>
      <use xlink:href="#DejaVuSerif-74" transform="translate(321.964844 0)"/>
      <use xlink:href="#DejaVuSerif-20" transform="translate(362.150391 0)"/>
      <use xlink:href="#DejaVuSerif-43" transform="translate(393.9375 0)"/>
      <use xlink:href="#DejaVuSerif-61" transform="translate(470.451172 0)"/>
      <use xlink:href="#DejaVuSerif-6c" transform="translate(530.070312 0)"/>
      <use xlink:href="#DejaVuSerif-69" transform="translate(562.052734 0)"/>
      <use xlink:href="#DejaVuSerif-62" transform="translate(594.035156 0)"/>
      <use xlink:href="#DejaVuSerif-72" transform="translate(658.048828 0)"/>
      <use xlink:href="#DejaVuSerif-61" transform="translate(705.851562 0)"/>
      <use xlink:href="#DejaVuSerif-74" transform="translate(765.470703 0)"/>
      <use xlink:href="#DejaVuSerif-69" transform="translate(805.65625 0)"/>
      <use xlink:href="#DejaVuSerif-6f" transform="translate(837.638672 0)"/>
      <use xlink:href="#DejaVuSerif-6e" transform="translate(897.84375 0)"/>
     </g>
    </g>
    <g id="line2d_28">
     <path d="M 51.25875 47.317031 
L 60.25875 47.317031 
L 69.25875 47.317031 
" style="fill: none; stroke: #10b981; stroke-width: 2; stroke-linecap: square"/>
     <g>
      <use xlink:href="#m6351fc4179" x="60.25875" y="47.317031" style="fill: #10b981; stroke: #10b981; stroke-linejoin: miter"/>
     </g>
    </g>
    <g id="text_17">
     <!-- HalluciSense Calibrated -->
     <g transform="translate(76.45875 50.467031) scale(0.09 -0.09)">
      <use xlink:href="#DejaVuSerif-48"/>
      <use xlink:href="#DejaVuSerif-61" transform="translate(87.207031 0)"/>
      <use xlink:href="#DejaVuSerif-6c" transform="translate(146.826172 0)"/>
      <use xlink:href="#DejaVuSerif-6c" transform="translate(178.808594 0)"/>
      <use xlink:href="#DejaVuSerif-75" transform="translate(210.791016 0)"/>
      <use xlink:href="#DejaVuSerif-63" transform="translate(275.195312 0)"/>
      <use xlink:href="#DejaVuSerif-69" transform="translate(331.201172 0)"/>
      <use xlink:href="#DejaVuSerif-53" transform="translate(363.183594 0)"/>
      <use xlink:href="#DejaVuSerif-65" transform="translate(431.689453 0)"/>
      <use xlink:href="#DejaVuSerif-6e" transform="translate(490.869141 0)"/>
      <use xlink:href="#DejaVuSerif-73" transform="translate(555.273438 0)"/>
      <use xlink:href="#DejaVuSerif-65" transform="translate(606.591797 0)"/>
      <use xlink:href="#DejaVuSerif-20" transform="translate(665.771484 0)"/>
      <use xlink:href="#DejaVuSerif-43" transform="translate(697.558594 0)"/>
      <use xlink:href="#DejaVuSerif-61" transform="translate(774.072266 0)"/>
      <use xlink:href="#DejaVuSerif-6c" transform="translate(833.691406 0)"/>
      <use xlink:href="#DejaVuSerif-69" transform="translate(865.673828 0)"/>
      <use xlink:href="#DejaVuSerif-62" transform="translate(897.65625 0)"/>
      <use xlink:href="#DejaVuSerif-72" transform="translate(961.669922 0)"/>
      <use xlink:href="#DejaVuSerif-61" transform="translate(1009.472656 0)"/>
      <use xlink:href="#DejaVuSerif-74" transform="translate(1069.091797 0)"/>
      <use xlink:href="#DejaVuSerif-65" transform="translate(1109.277344 0)"/>
      <use xlink:href="#DejaVuSerif-64" transform="translate(1168.457031 0)"/>
     </g>
    </g>
   </g>
  </g>
 </g>
 <defs>
  <clipPath id="p307b602bb1">
   <rect x="43.15875" y="22.318125" width="334.8" height="277.2"/>
  </clipPath>
 </defs>
</svg>
